<?xml version="1.0" encoding="UTF-8" standalone="no"?>
<svg
   xmlns:dc="http://purl.org/dc/elements/1.1/"
   xmlns:cc="http://creativecommons.org/ns#"
   xmlns:rdf="http://www.w3.org/1999/02/22-rdf-syntax-ns#"
   xmlns:svg="http://www.w3.org/2000/svg"
   xmlns="http://www.w3.org/2000/svg"
   xmlns:xlink="http://www.w3.org/1999/xlink"
   id="svg7"
   xml:space="preserve"
   viewBox="0 0 1024 768"
   y="0px"
   x="0px"
   version="1.1"><metadata
     id="metadata13"><rdf:RDF><cc:Work
         rdf:about=""><dc:format>image/svg+xml</dc:format><dc:type
           rdf:resource="http://purl.org/dc/dcmitype/StillImage" /></cc:Work></rdf:RDF></metadata><defs
     id="defs11" /><g
     id="g3"
     transform="matrix(1.5,0,0,1.2,512,384)"><path
       style="fill:#fbedeb"
       d="m 152.4,-201.9 c 46.6,26 86.9,68.5 97.2,116.9 10.4,48.3 -9.3,102.5 -32.2,150.3 -22.9,47.8 -49,89.1 -85.8,121.8 -36.8,32.8 -84.2,56.8 -135.5,62.2 -51.4,5.4 -106.6,-7.9 -148.6,-38.9 -42,-31 -70.8,-79.8 -87.5,-132.2 -16.8,-52.4 -21.5,-108.6 -2.2,-153.4 19.4,-44.8 62.9,-78.2 107.3,-105 44.4,-26.7 89.6,-46.8 138.7,-52 49.1,-5.3 102,4.2 148.6,30.3 z"
       id="path" /></g><animate
     fill="freeze"
     values="M120.2,-176.8C149.6,-144.2,162.8,-100.7,175.5,-57.9C188.3,-15,200.7,27.1,195.6,70.1C190.6,113,168.2,156.8,132.7,178C97.2,199.1,48.6,197.5,4.9,190.8C-38.8,184.1,-77.6,172.1,-115.3,151.7C-153,131.3,-189.7,102.4,-205.6,64.2C-221.6,26.1,-216.8,-21.4,-204,-67.9C-191.2,-114.4,-170.2,-160,-134.9,-190.6C-99.5,-221.3,-49.8,-237.2,-2.2,-234.2C45.5,-231.2,90.9,-209.5,120.2,-176.8Z; M152.4,-201.9C199,-175.9,239.3,-133.4,249.6,-85C260,-36.7,240.3,17.5,217.4,65.3C194.5,113.1,168.4,154.4,131.6,187.1C94.8,219.9,47.4,243.9,-3.9,249.3C-55.3,254.7,-110.5,241.4,-152.5,210.4C-194.5,179.4,-223.3,130.6,-240,78.2C-256.8,25.8,-261.5,-30.4,-242.2,-75.2C-222.8,-120,-179.3,-153.4,-134.9,-180.2C-90.5,-206.9,-45.3,-227,3.8,-232.2C52.9,-237.5,105.8,-228,152.4,-201.9Z; M101.9,-120.6C144.2,-109.5,199.1,-96,223.6,-62.7C248.2,-29.4,242.5,23.8,220.4,65.3C198.2,106.8,159.7,136.8,120.2,173.1C80.7,209.4,40.4,252.2,-4.7,258.7C-49.8,265.2,-99.5,235.3,-119,192.5C-138.5,149.7,-127.8,93.8,-144.4,46.1C-161,-1.6,-205.1,-41.3,-214.9,-88C-224.7,-134.6,-200.2,-188.3,-158.7,-199.6C-117.2,-210.9,-58.6,-180,-14.4,-160.1C29.8,-140.3,59.6,-131.6,101.9,-120.6Z; M113.1,-161.5C148.6,-129.9,180.8,-99.5,181.6,-66.3C182.3,-33.1,151.5,3.1,132.4,37.1C113.2,71.2,105.7,103.2,85.6,142.9C65.4,182.7,32.7,230.4,-3.9,235.8C-40.6,241.2,-81.1,204.3,-114.7,168.9C-148.3,133.5,-175,99.5,-198.1,57.5C-221.3,15.5,-240.9,-34.6,-221,-64.4C-201.2,-94.2,-141.7,-103.7,-98.3,-132.8C-54.9,-161.8,-27.4,-210.4,5.7,-218.2C38.8,-226.1,77.6,-193.1,113.1,-161.5Z; M102,-143.7C138.9,-113.5,180.3,-92.8,196.8,-59.7C213.4,-26.7,205.1,18.6,190.6,61.5C176.1,104.4,155.4,144.8,122.5,162.7C89.7,180.5,44.9,175.8,-1.2,177.4C-47.2,179,-94.4,187,-113.8,164.8C-133.1,142.5,-124.6,90.1,-143.6,43.8C-162.6,-2.6,-209.2,-42.9,-216.4,-85.7C-223.7,-128.5,-191.5,-173.9,-148.8,-202.2C-106.2,-230.5,-53.1,-241.7,-10.3,-227.6C32.5,-213.4,65,-173.9,102,-143.7Z; M120.2,-176.8C149.6,-144.2,162.8,-100.7,175.5,-57.9C188.3,-15,200.7,27.1,195.6,70.1C190.6,113,168.2,156.8,132.7,178C97.2,199.1,48.6,197.5,4.9,190.8C-38.8,184.1,-77.6,172.1,-115.3,151.7C-153,131.3,-189.7,102.4,-205.6,64.2C-221.6,26.1,-216.8,-21.4,-204,-67.9C-191.2,-114.4,-170.2,-160,-134.9,-190.6C-99.5,-221.3,-49.8,-237.2,-2.2,-234.2C45.5,-231.2,90.9,-209.5,120.2,-176.8Z"
     keySplines="0.9 0.1 0.1 0.9;0.9 0.1 0.1 0.9;0.9 0.1 0.1 0.9;0.9 0.1 0.1 0.9;0.9 0.1 0.1 0.9"
     calcMode="spline"
     keyTimes="0; 0.2; 0.4; 0.6; 0.8; 1"
     attributeName="d"
     repeatCount="indefinite"
     dur="20s"
     attributeType="XML"
     xlink:href="#path" /><path
     id="path5"
     transform="translate(153.6 115.2) scale(0.7)"
     fill="#d85651"
     d="m512.25 206.34c-0.41-0.01-0.9 0-1.09 0.03-0.18 0.02-0.55 0.08-0.81 0.13-0.26 0.06-0.66 0.17-0.88 0.25-0.21 0.08-3.76 1.83-7.88 3.89-4.11 2.06-7.57 3.81-7.69 3.89-0.11 0.08-0.29 0.24-0.4 0.35-0.1 0.1-0.23 0.28-0.29 0.39-0.08 0.17-0.1 0.26-0.1 0.56 0 0.29 0.02 0.39 0.1 0.54 0.05 0.1 0.19 0.29 0.31 0.41s0.29 0.28 0.38 0.34 3.58 1.82 7.76 3.91c4.87 2.44 7.72 3.85 7.96 3.93 0.21 0.06 0.56 0.16 0.79 0.2 0.23 0.05 0.62 0.11 0.85 0.13 0.24 0.03 0.61 0.05 0.82 0.05 0.22 0 0.58-0.02 0.82-0.05 0.24-0.02 0.62-0.08 0.85-0.13 0.23-0.04 0.59-0.14 0.79-0.2 0.24-0.08 3.1-1.49 7.9-3.89 4.14-2.07 7.63-3.83 7.76-3.91s0.32-0.24 0.43-0.36c0.12-0.11 0.26-0.32 0.33-0.46 0.11-0.23 0.12-0.3 0.11-0.56-0.01-0.22-0.05-0.37-0.12-0.51-0.05-0.11-0.19-0.29-0.3-0.4-0.1-0.11-0.32-0.29-0.48-0.39-0.15-0.1-3.64-1.86-7.75-3.92-5.88-2.93-7.57-3.76-7.93-3.88-0.25-0.08-0.68-0.18-0.97-0.23-0.36-0.07-0.74-0.1-1.27-0.11zm-23.17 11.59c-0.44-0.01-0.95 0.01-1.12 0.03s-0.48 0.06-0.67 0.1-0.53 0.12-0.75 0.19c-0.29 0.1-2.4 1.13-7.96 3.91-4.17 2.08-7.68 3.85-7.8 3.93-0.13 0.08-0.33 0.26-0.45 0.38-0.13 0.13-0.27 0.33-0.32 0.44-0.06 0.15-0.09 0.28-0.09 0.51 0 0.25 0.02 0.35 0.1 0.5 0.06 0.1 0.17 0.27 0.25 0.37s0.28 0.27 0.44 0.39c0.18 0.12 3.2 1.66 7.84 3.97 4.16 2.08 7.69 3.82 7.85 3.88 0.16 0.05 0.52 0.15 0.79 0.21 0.27 0.05 0.78 0.12 1.12 0.15 0.48 0.04 0.76 0.04 1.19 0 0.31-0.02 0.77-0.08 1.01-0.13 0.25-0.05 0.63-0.14 0.84-0.21 0.26-0.09 2.81-1.34 7.97-3.92 5.79-2.89 7.66-3.84 7.88-4.01 0.16-0.12 0.37-0.33 0.45-0.45 0.09-0.13 0.19-0.33 0.23-0.45 0.04-0.14 0.05-0.3 0.04-0.43-0.01-0.11-0.07-0.28-0.12-0.39-0.05-0.1-0.17-0.28-0.27-0.4-0.1-0.11-0.28-0.27-0.39-0.35s-3.61-1.86-7.78-3.94c-5.89-2.95-7.69-3.83-8.04-3.94-0.25-0.08-0.67-0.19-0.94-0.24-0.35-0.06-0.72-0.09-1.3-0.1zm46.33 0c-0.44-0.01-0.95 0.01-1.12 0.03-0.18 0.02-0.47 0.06-0.67 0.1-0.19 0.04-0.53 0.12-0.75 0.19-0.29 0.1-2.5 1.18-8.03 3.95-4.2 2.1-7.72 3.88-7.83 3.96-0.1 0.08-0.28 0.23-0.38 0.35-0.1 0.11-0.23 0.29-0.28 0.4-0.07 0.15-0.1 0.27-0.1 0.49 0 0.24 0.02 0.34 0.12 0.54 0.07 0.14 0.21 0.34 0.32 0.44 0.1 0.11 0.28 0.25 0.39 0.33 0.11 0.07 3.61 1.84 7.78 3.92 4.17 2.09 7.74 3.85 7.91 3.91 0.18 0.06 0.53 0.15 0.79 0.2 0.25 0.06 0.73 0.12 1.07 0.15 0.48 0.04 0.74 0.04 1.22 0 0.33-0.02 0.83-0.09 1.11-0.15s0.67-0.17 0.87-0.24c0.19-0.07 3.72-1.81 7.84-3.87 4.75-2.37 7.6-3.82 7.79-3.96 0.17-0.11 0.37-0.3 0.46-0.42 0.09-0.11 0.21-0.31 0.26-0.44 0.07-0.18 0.09-0.3 0.07-0.48-0.01-0.13-0.06-0.32-0.11-0.43-0.04-0.1-0.18-0.29-0.3-0.42-0.13-0.13-0.35-0.32-0.5-0.42-0.15-0.09-3.63-1.85-7.75-3.91-5.87-2.93-7.58-3.77-7.94-3.88-0.25-0.08-0.67-0.19-0.94-0.24-0.35-0.06-0.72-0.09-1.3-0.1zm-69.7 11.58c-0.41 0-0.93 0.03-1.15 0.06-0.21 0.03-0.51 0.08-0.66 0.12-0.15 0.03-0.42 0.11-0.61 0.17s-3.4 1.64-7.77 3.82c-4.1 2.05-7.58 3.79-7.73 3.88s-0.39 0.27-0.53 0.4c-0.17 0.15-0.29 0.32-0.38 0.5-0.11 0.22-0.14 0.32-0.14 0.53s0.03 0.32 0.14 0.54c0.09 0.18 0.21 0.34 0.38 0.5 0.14 0.13 0.38 0.3 0.53 0.39s3.63 1.84 7.71 3.88c5.75 2.87 7.52 3.74 7.84 3.84 0.23 0.07 0.6 0.17 0.83 0.22 0.31 0.06 0.65 0.09 1.29 0.1 0.56 0.02 1.04 0.01 1.31-0.02 0.23-0.03 0.61-0.09 0.84-0.15 0.22-0.05 0.53-0.14 0.68-0.19 0.14-0.05 3.67-1.79 7.85-3.88 5.63-2.81 7.66-3.85 7.88-4.01 0.16-0.12 0.36-0.31 0.44-0.43 0.09-0.11 0.19-0.29 0.22-0.39 0.04-0.1 0.07-0.28 0.07-0.4s-0.03-0.3-0.07-0.4c-0.03-0.1-0.13-0.27-0.21-0.38s-0.25-0.28-0.38-0.39c-0.17-0.14-2.34-1.24-7.89-4.02-4.54-2.27-7.79-3.87-7.99-3.93-0.18-0.06-0.45-0.14-0.6-0.18-0.14-0.04-0.46-0.09-0.71-0.13-0.25-0.03-0.76-0.05-1.19-0.05zm46.33 0c-0.41 0-0.81 0.01-0.88 0.02-0.06 0.01-0.31 0.05-0.54 0.09-0.23 0.03-0.62 0.13-0.87 0.21-0.37 0.11-1.91 0.87-8.05 3.94-4.17 2.08-7.69 3.86-7.82 3.95s-0.32 0.25-0.42 0.36c-0.09 0.11-0.21 0.28-0.26 0.37-0.06 0.11-0.09 0.28-0.1 0.49-0.02 0.27-0.01 0.34 0.08 0.54 0.06 0.12 0.19 0.32 0.3 0.44 0.1 0.11 0.3 0.28 0.43 0.37s3.64 1.86 7.8 3.94c5.41 2.71 7.67 3.82 7.95 3.91 0.22 0.07 0.61 0.17 0.87 0.22 0.41 0.09 0.59 0.1 1.55 0.1 0.88 0 1.16-0.02 1.46-0.08 0.21-0.04 0.54-0.12 0.75-0.18s0.49-0.16 0.63-0.21c0.13-0.06 3.58-1.78 7.65-3.81 4.07-2.04 7.52-3.78 7.66-3.88 0.14-0.09 0.35-0.26 0.45-0.38 0.11-0.12 0.24-0.29 0.28-0.38 0.08-0.14 0.09-0.24 0.09-0.55 0-0.3-0.01-0.41-0.09-0.54-0.04-0.09-0.17-0.26-0.26-0.37-0.1-0.11-0.32-0.29-0.48-0.4-0.16-0.1-3.68-1.88-7.82-3.95-4.59-2.29-7.65-3.8-7.86-3.86-0.18-0.06-0.45-0.14-0.6-0.18s-0.47-0.09-0.71-0.13c-0.26-0.03-0.75-0.05-1.19-0.05zm46.33 0c-0.41 0-0.87 0.02-1.02 0.04s-0.42 0.07-0.61 0.1c-0.18 0.04-0.51 0.13-0.73 0.2-0.28 0.09-2.5 1.18-8.05 3.95-5.54 2.78-7.71 3.88-7.89 4.02-0.13 0.11-0.3 0.28-0.38 0.39s-0.18 0.29-0.22 0.4c-0.04 0.13-0.06 0.29-0.05 0.46 0.01 0.15 0.06 0.33 0.11 0.45 0.05 0.1 0.16 0.26 0.25 0.36 0.08 0.1 0.26 0.26 0.4 0.36s3.66 1.88 7.81 3.96c4.15 2.07 7.62 3.8 7.71 3.84 0.08 0.03 0.33 0.11 0.54 0.17 0.21 0.05 0.54 0.13 0.73 0.17 0.29 0.06 0.57 0.08 1.44 0.08 0.96 0 1.14-0.01 1.54-0.09 0.26-0.06 0.65-0.16 0.87-0.23 0.32-0.1 2.17-1 7.93-3.88 4.13-2.07 7.63-3.84 7.78-3.94s0.37-0.27 0.48-0.39c0.1-0.12 0.24-0.32 0.3-0.45 0.08-0.17 0.11-0.31 0.11-0.49 0-0.21-0.03-0.32-0.13-0.53-0.09-0.18-0.22-0.35-0.39-0.5-0.14-0.13-0.37-0.31-0.53-0.4-0.15-0.09-3.62-1.83-7.7-3.87-5.66-2.83-7.52-3.74-7.84-3.84-0.23-0.07-0.51-0.15-0.62-0.18-0.12-0.03-0.41-0.07-0.65-0.11-0.26-0.03-0.75-0.05-1.19-0.05zm-23.21 11.55c-0.1 0.01-0.38 0.02-0.61 0.04-0.24 0.02-0.63 0.07-0.88 0.12s-0.62 0.14-0.83 0.21c-0.26 0.09-2.78 1.32-8.05 3.96-6.11 3.06-7.71 3.87-7.9 4.03-0.14 0.11-0.31 0.3-0.39 0.41s-0.17 0.3-0.21 0.41c-0.05 0.14-0.06 0.28-0.05 0.44 0.01 0.12 0.07 0.3 0.12 0.41 0.04 0.1 0.17 0.27 0.27 0.39 0.1 0.11 0.28 0.27 0.4 0.36 0.11 0.08 3.62 1.86 7.78 3.94 5.81 2.91 7.68 3.83 8.02 3.93 0.24 0.08 0.57 0.17 0.75 0.21 0.17 0.03 0.53 0.09 0.79 0.11 0.29 0.03 0.75 0.04 1.18 0.03 0.4-0.01 0.89-0.05 1.09-0.09 0.21-0.03 0.52-0.1 0.69-0.15s0.45-0.13 0.61-0.2c0.16-0.05 3.63-1.77 7.71-3.81s7.54-3.79 7.69-3.89 0.37-0.28 0.5-0.41c0.12-0.13 0.25-0.33 0.3-0.43 0.05-0.11 0.1-0.3 0.11-0.43 0.01-0.17 0-0.29-0.07-0.47-0.05-0.13-0.17-0.33-0.25-0.45-0.09-0.11-0.29-0.29-0.44-0.4-0.16-0.11-3.37-1.74-7.85-3.98-5.66-2.84-7.68-3.83-7.98-3.92-0.21-0.07-0.58-0.16-0.8-0.21-0.23-0.04-0.66-0.1-0.96-0.12-0.3-0.03-0.63-0.04-0.74-0.04zm-45.96 0.02c-0.33-0.01-0.79 0-1.03 0.02-0.25 0.02-0.64 0.08-0.88 0.13-0.24 0.04-0.6 0.14-0.79 0.2-0.23 0.08-3.17 1.52-7.97 3.92-4.2 2.1-7.72 3.89-7.87 3.99-0.14 0.1-0.33 0.28-0.42 0.39-0.09 0.12-0.21 0.32-0.26 0.45-0.06 0.18-0.08 0.3-0.07 0.47 0.02 0.13 0.06 0.32 0.11 0.43 0.05 0.1 0.18 0.3 0.31 0.43 0.12 0.13 0.34 0.31 0.49 0.41s3.61 1.85 7.69 3.89c4.09 2.04 7.56 3.76 7.72 3.81 0.16 0.06 0.43 0.15 0.6 0.2s0.48 0.12 0.69 0.15c0.21 0.04 0.7 0.08 1.09 0.09 0.43 0.01 0.89 0 1.18-0.03 0.27-0.02 0.62-0.08 0.79-0.11 0.18-0.04 0.52-0.13 0.78-0.21 0.36-0.12 2.01-0.93 7.92-3.88 4.1-2.05 7.59-3.81 7.74-3.92 0.15-0.1 0.37-0.28 0.49-0.41 0.11-0.12 0.24-0.31 0.29-0.42 0.05-0.1 0.11-0.28 0.12-0.39 0.01-0.12 0-0.28-0.04-0.42-0.04-0.13-0.14-0.34-0.24-0.47-0.09-0.12-0.29-0.32-0.43-0.43-0.18-0.13-2.74-1.43-7.96-4.04-6.42-3.21-7.76-3.86-8.09-3.95-0.22-0.06-0.61-0.15-0.87-0.19-0.27-0.05-0.75-0.09-1.08-0.11h-0.01zm-42.58 2.91c-0.24-0.01-0.42 0-0.58 0.05-0.12 0.03-0.3 0.11-0.4 0.16-0.09 0.06-0.26 0.2-0.38 0.33-0.13 0.13-0.28 0.36-0.37 0.53-0.07 0.17-0.17 0.45-0.21 0.62l-0.08 0.32v19.09l0.1 0.43c0.05 0.24 0.15 0.61 0.22 0.82s0.23 0.59 0.35 0.84 0.34 0.64 0.49 0.85c0.14 0.22 0.44 0.59 0.67 0.82 0.22 0.24 0.54 0.52 0.71 0.64 0.19 0.13 3.21 1.66 7.63 3.86 4.03 2 7.42 3.68 7.54 3.72 0.16 0.06 0.34 0.08 0.66 0.07 0.36 0 0.48-0.01 0.68-0.09 0.13-0.05 0.33-0.18 0.45-0.29s0.29-0.31 0.38-0.45c0.09-0.13 0.21-0.39 0.26-0.57 0.06-0.18 0.13-0.53 0.15-0.79 0.03-0.33 0.04-3.33 0.03-9.67l-0.02-9.19-0.07-0.35c-0.04-0.19-0.14-0.59-0.24-0.87-0.09-0.29-0.28-0.75-0.42-1.01-0.13-0.27-0.36-0.65-0.51-0.85-0.14-0.21-0.39-0.51-0.54-0.68-0.15-0.16-0.43-0.42-0.62-0.56-0.29-0.22-1.54-0.86-7.68-3.92-4.04-2.02-7.45-3.7-7.59-3.75s-0.4-0.1-0.61-0.11zm131.09 0c-0.18 0-0.38 0-0.44 0.01s-0.2 0.05-0.31 0.09c-0.12 0.03-3.55 1.73-7.63 3.76l-7.42 3.7-0.36 0.29c-0.19 0.16-0.48 0.44-0.64 0.62s-0.4 0.5-0.54 0.71-0.34 0.56-0.45 0.79-0.28 0.64-0.37 0.92-0.2 0.67-0.24 0.86l-0.07 0.35-0.01 9.19c-0.01 6.34 0 9.35 0.03 9.67 0.02 0.26 0.09 0.61 0.14 0.79 0.06 0.18 0.18 0.44 0.27 0.58 0.09 0.13 0.24 0.32 0.35 0.42 0.1 0.09 0.26 0.21 0.35 0.25 0.09 0.05 0.26 0.11 0.38 0.14 0.14 0.03 0.36 0.04 0.57 0.03 0.18-0.02 0.44-0.06 0.56-0.11 0.13-0.04 3.51-1.71 7.52-3.71 4.48-2.23 7.4-3.71 7.6-3.84 0.17-0.12 0.49-0.41 0.72-0.65 0.22-0.23 0.52-0.6 0.67-0.81 0.14-0.22 0.36-0.61 0.49-0.86 0.12-0.25 0.28-0.63 0.35-0.84s0.17-0.57 0.22-0.81l0.1-0.43v-19.1l-0.08-0.33c-0.04-0.18-0.15-0.47-0.24-0.65-0.12-0.24-0.23-0.4-0.43-0.58-0.18-0.17-0.35-0.28-0.51-0.34s-0.36-0.1-0.58-0.11zm-65.43 8.68c-0.39-0.01-0.87 0-1.06 0.02-0.2 0.02-0.55 0.08-0.79 0.13s-0.6 0.14-0.8 0.2c-0.22 0.08-3.36 1.62-8.03 3.96l-7.66 3.83-0.3 0.28c-0.21 0.19-0.34 0.36-0.43 0.53-0.1 0.2-0.13 0.31-0.13 0.51 0 0.15 0.03 0.35 0.07 0.44 0.03 0.1 0.13 0.27 0.22 0.39 0.08 0.11 0.27 0.3 0.42 0.41 0.2 0.15 2.35 1.25 7.8 3.98 4.14 2.07 7.7 3.82 7.9 3.89 0.21 0.08 0.53 0.17 0.71 0.22 0.19 0.04 0.58 0.11 0.88 0.14s0.75 0.06 1 0.06 0.7-0.03 1-0.06 0.69-0.1 0.87-0.14c0.19-0.05 0.51-0.14 0.71-0.22 0.21-0.07 3.73-1.81 7.84-3.86s7.58-3.81 7.72-3.9c0.14-0.1 0.33-0.26 0.44-0.37 0.1-0.11 0.23-0.29 0.29-0.4 0.07-0.14 0.11-0.29 0.12-0.5l0.01-0.31-0.13-0.27c-0.09-0.18-0.22-0.34-0.43-0.54l-0.3-0.28-7.76-3.87c-6.22-3.11-7.83-3.9-8.13-3.98-0.2-0.06-0.59-0.15-0.85-0.19-0.3-0.05-0.74-0.09-1.19-0.1h-0.01zm-43.05 2.58c-0.17-0.01-0.39 0-0.48 0.02-0.1 0.02-0.27 0.09-0.39 0.15s-0.31 0.19-0.41 0.29c-0.11 0.09-0.25 0.26-0.33 0.38-0.07 0.11-0.17 0.32-0.22 0.46-0.05 0.13-0.12 0.39-0.15 0.55-0.05 0.26-0.06 1.78-0.06 9.68 0 7.8 0.01 9.43 0.06 9.72 0.03 0.2 0.11 0.54 0.17 0.77 0.06 0.22 0.19 0.6 0.29 0.84 0.1 0.23 0.28 0.59 0.4 0.79 0.12 0.21 0.32 0.51 0.45 0.69 0.13 0.17 0.37 0.45 0.55 0.62 0.17 0.18 0.43 0.41 0.58 0.51 0.16 0.12 3.33 1.72 7.55 3.83 4 2 7.4 3.69 7.55 3.74 0.23 0.1 0.33 0.11 0.77 0.11l0.5 0.01 0.27-0.14c0.17-0.08 0.36-0.22 0.48-0.35 0.12-0.12 0.26-0.31 0.32-0.41s0.16-0.33 0.22-0.51c0.07-0.22 0.12-0.49 0.15-0.85s0.04-3.54 0.03-9.65l-0.02-9.11-0.07-0.34c-0.03-0.18-0.12-0.53-0.19-0.77s-0.25-0.67-0.38-0.96c-0.14-0.28-0.38-0.7-0.53-0.93s-0.46-0.6-0.68-0.83c-0.21-0.23-0.51-0.5-0.66-0.6-0.14-0.11-3.45-1.78-7.55-3.83-4.01-2-7.43-3.69-7.6-3.75-0.19-0.07-0.42-0.12-0.62-0.13zm85.92 0.01c-0.18-0.01-0.4-0.01-0.49 0.01s-0.29 0.09-0.44 0.14c-0.15 0.06-3.55 1.74-7.55 3.74-4.87 2.44-7.36 3.71-7.55 3.84-0.15 0.11-0.44 0.38-0.65 0.59-0.2 0.22-0.5 0.58-0.65 0.81s-0.39 0.65-0.53 0.93c-0.13 0.29-0.3 0.72-0.37 0.96s-0.17 0.59-0.2 0.77l-0.07 0.34-0.02 9.11c-0.01 6.11 0 9.29 0.03 9.65s0.08 0.63 0.15 0.85c0.06 0.18 0.16 0.41 0.22 0.51s0.2 0.29 0.32 0.41c0.12 0.13 0.31 0.27 0.48 0.35l0.27 0.14 0.5-0.01c0.44 0 0.54-0.01 0.78-0.11 0.14-0.06 3.53-1.73 7.52-3.73 4.56-2.27 7.37-3.7 7.55-3.83 0.16-0.11 0.43-0.34 0.61-0.52 0.17-0.17 0.41-0.45 0.54-0.62 0.13-0.18 0.33-0.48 0.45-0.69 0.12-0.2 0.3-0.56 0.4-0.8s0.24-0.65 0.31-0.9c0.07-0.26 0.14-0.62 0.17-0.8 0.03-0.24 0.04-3.1 0.03-9.8l-0.01-9.47-0.1-0.31c-0.05-0.17-0.16-0.44-0.24-0.59-0.08-0.16-0.24-0.37-0.37-0.5-0.13-0.11-0.35-0.26-0.49-0.33-0.2-0.1-0.34-0.13-0.6-0.14zm-63.29 11.26c-0.12-0.01-0.32 0-0.44 0.02-0.13 0.02-0.34 0.09-0.48 0.16-0.16 0.08-0.35 0.22-0.48 0.35-0.14 0.15-0.27 0.36-0.38 0.58-0.08 0.19-0.19 0.49-0.22 0.68l-0.07 0.33 0.01 9.59 0.01 9.59 0.1 0.36c0.05 0.19 0.14 0.5 0.2 0.69 0.06 0.18 0.19 0.51 0.29 0.72 0.11 0.22 0.27 0.54 0.38 0.71s0.31 0.47 0.45 0.65 0.4 0.47 0.57 0.63 0.44 0.38 0.58 0.48c0.15 0.1 3.57 1.82 7.6 3.83 4.04 2.02 7.44 3.69 7.56 3.73 0.13 0.03 0.33 0.07 0.47 0.09s0.34 0 0.49-0.02c0.13-0.03 0.35-0.11 0.47-0.17 0.13-0.07 0.31-0.19 0.39-0.28 0.09-0.08 0.22-0.24 0.29-0.34s0.17-0.29 0.22-0.42 0.13-0.39 0.17-0.57l0.06-0.33-0.01-9.57-0.01-9.57-0.08-0.31c-0.04-0.18-0.14-0.51-0.22-0.75s-0.23-0.63-0.35-0.86c-0.11-0.23-0.33-0.62-0.49-0.86s-0.44-0.59-0.61-0.77c-0.18-0.19-0.47-0.46-0.66-0.6-0.29-0.22-1.55-0.87-7.7-3.93-4.34-2.16-7.46-3.69-7.63-3.74-0.15-0.04-0.37-0.09-0.48-0.1zm40.72 0c-0.11-0.01-0.29 0-0.41 0.01-0.11 0.02-0.31 0.07-0.43 0.11s-3.52 1.72-7.56 3.73c-6.11 3.04-7.4 3.7-7.69 3.92-0.19 0.14-0.48 0.41-0.66 0.6-0.17 0.19-0.45 0.53-0.61 0.77s-0.38 0.63-0.49 0.86-0.27 0.62-0.35 0.86-0.18 0.57-0.22 0.75l-0.08 0.31-0.01 9.57-0.01 9.57 0.06 0.33c0.04 0.18 0.12 0.44 0.17 0.57s0.15 0.32 0.22 0.42 0.2 0.26 0.29 0.34c0.08 0.09 0.27 0.21 0.4 0.28s0.36 0.15 0.52 0.17c0.24 0.05 0.35 0.04 0.64-0.02 0.26-0.05 0.52-0.15 1.06-0.41 0.39-0.19 3.76-1.87 7.48-3.73 4.99-2.49 6.85-3.44 7.06-3.6 0.15-0.11 0.42-0.37 0.61-0.57 0.19-0.19 0.48-0.56 0.65-0.82s0.41-0.67 0.52-0.91 0.26-0.61 0.33-0.83 0.16-0.54 0.2-0.73l0.08-0.33v-19.35l-0.1-0.31c-0.05-0.17-0.15-0.43-0.22-0.56-0.07-0.14-0.22-0.35-0.33-0.47-0.11-0.11-0.3-0.26-0.41-0.32-0.1-0.06-0.27-0.13-0.36-0.15s-0.25-0.05-0.35-0.06zm-85.97 5.82v0.01c-0.18-0.01-0.4 0-0.49 0.02s-0.25 0.09-0.37 0.15-0.32 0.21-0.44 0.32c-0.15 0.14-0.28 0.32-0.39 0.54-0.09 0.18-0.19 0.47-0.23 0.65l-0.08 0.32v19.1l0.1 0.46c0.05 0.25 0.15 0.61 0.22 0.81s0.22 0.56 0.35 0.82c0.12 0.25 0.34 0.63 0.48 0.85 0.14 0.21 0.43 0.56 0.64 0.78s0.5 0.49 0.65 0.61c0.2 0.15 2.21 1.17 7.65 3.89 4.56 2.27 7.5 3.71 7.69 3.77 0.24 0.08 0.37 0.09 0.69 0.08 0.33-0.02 0.43-0.04 0.66-0.15 0.17-0.09 0.35-0.23 0.51-0.39 0.15-0.16 0.29-0.36 0.37-0.55 0.08-0.17 0.18-0.47 0.22-0.66l0.08-0.36v-18.89l-0.08-0.39c-0.04-0.21-0.14-0.59-0.22-0.85s-0.23-0.64-0.33-0.84c-0.09-0.21-0.28-0.55-0.41-0.75-0.12-0.21-0.38-0.56-0.56-0.78-0.19-0.22-0.46-0.5-0.62-0.63s-0.38-0.29-0.49-0.36c-0.1-0.08-3.47-1.77-7.48-3.77-4.01-1.99-7.4-3.66-7.54-3.71s-0.39-0.09-0.58-0.1zm131.11 0v0.01c-0.22-0.01-0.43 0.01-0.6 0.05-0.18 0.04-1.09 0.47-2.65 1.25-1.31 0.66-4.62 2.31-7.36 3.67-2.73 1.36-5.1 2.56-5.25 2.66-0.15 0.11-0.36 0.27-0.48 0.37-0.11 0.1-0.35 0.35-0.54 0.57-0.18 0.22-0.44 0.57-0.56 0.77-0.13 0.21-0.32 0.55-0.41 0.75-0.1 0.21-0.25 0.59-0.33 0.85-0.08 0.25-0.18 0.64-0.22 0.85l-0.08 0.39v18.89l0.08 0.35c0.04 0.2 0.14 0.49 0.22 0.66 0.09 0.19 0.22 0.39 0.38 0.55 0.15 0.16 0.33 0.3 0.5 0.39 0.24 0.11 0.33 0.13 0.66 0.15 0.34 0.01 0.44 0 0.74-0.09 0.22-0.08 2.89-1.39 7.68-3.78 4.93-2.46 7.42-3.73 7.6-3.86 0.14-0.1 0.43-0.37 0.65-0.6 0.21-0.23 0.51-0.59 0.65-0.8s0.36-0.6 0.48-0.85c0.13-0.25 0.28-0.62 0.35-0.82s0.17-0.56 0.22-0.81l0.1-0.46v-19.1l-0.08-0.32c-0.04-0.18-0.14-0.48-0.23-0.65-0.11-0.22-0.24-0.4-0.4-0.55-0.12-0.12-0.35-0.27-0.5-0.34-0.22-0.1-0.34-0.13-0.62-0.15zm-22.74 11.26c-0.04 0-0.13 0.01-0.2 0.02s-0.23 0.05-0.36 0.08c-0.12 0.04-3.53 1.71-7.58 3.73-4.49 2.24-7.47 3.75-7.66 3.88-0.17 0.12-0.49 0.4-0.7 0.62-0.22 0.23-0.51 0.58-0.65 0.8-0.14 0.21-0.35 0.55-0.45 0.75-0.1 0.21-0.24 0.52-0.31 0.69-0.07 0.18-0.18 0.53-0.25 0.79-0.07 0.28-0.13 0.69-0.16 1-0.03 0.34-0.04 3.65-0.04 9.33 0 5.44 0.01 8.98 0.04 9.27 0.02 0.26 0.08 0.59 0.13 0.75s0.14 0.39 0.21 0.52 0.22 0.33 0.34 0.45 0.32 0.27 0.45 0.34c0.12 0.06 0.35 0.14 0.49 0.17 0.15 0.02 0.36 0.03 0.48 0.01 0.12-0.01 0.33-0.06 0.47-0.1 0.14-0.05 3.57-1.73 7.61-3.74 6.1-3.04 7.41-3.71 7.69-3.92 0.19-0.14 0.46-0.38 0.6-0.54 0.15-0.15 0.37-0.42 0.5-0.6 0.13-0.17 0.32-0.47 0.43-0.65 0.1-0.18 0.28-0.54 0.39-0.79 0.1-0.25 0.24-0.65 0.31-0.9 0.06-0.24 0.14-0.61 0.16-0.81 0.04-0.27 0.05-2.83 0.04-9.81l-0.01-9.45-0.1-0.3c-0.05-0.17-0.15-0.42-0.22-0.55-0.06-0.13-0.22-0.35-0.33-0.48-0.14-0.15-0.31-0.28-0.47-0.36-0.15-0.07-0.37-0.14-0.51-0.17-0.14-0.02-0.29-0.03-0.33-0.03h-0.01zm-85.71 0.02c-0.15-0.02-0.36-0.01-0.48 0.01-0.11 0.02-0.32 0.09-0.46 0.16-0.17 0.09-0.34 0.22-0.48 0.37-0.12 0.13-0.27 0.34-0.33 0.47-0.07 0.13-0.17 0.38-0.22 0.55l-0.09 0.3-0.02 9.47c-0.01 6.8 0 9.56 0.04 9.8 0.02 0.18 0.09 0.52 0.15 0.75 0.05 0.23 0.19 0.62 0.29 0.88 0.1 0.25 0.28 0.62 0.4 0.82 0.11 0.2 0.32 0.52 0.46 0.71s0.41 0.5 0.61 0.7c0.2 0.19 0.5 0.44 0.66 0.55 0.17 0.11 3.58 1.83 7.59 3.82 4 2 7.4 3.67 7.53 3.71 0.14 0.04 0.35 0.09 0.47 0.11s0.33 0.01 0.48-0.02c0.14-0.03 0.37-0.1 0.5-0.17 0.13-0.06 0.33-0.22 0.44-0.33 0.12-0.12 0.27-0.32 0.34-0.45s0.16-0.37 0.21-0.53c0.05-0.15 0.11-0.49 0.13-0.75 0.03-0.28 0.04-3.83 0.04-9.26 0-5.68-0.01-8.99-0.04-9.34-0.03-0.31-0.09-0.72-0.16-0.99-0.07-0.26-0.18-0.62-0.25-0.79-0.07-0.18-0.21-0.49-0.31-0.69-0.11-0.2-0.3-0.54-0.45-0.76-0.14-0.21-0.42-0.55-0.61-0.76-0.2-0.21-0.49-0.47-0.64-0.59-0.2-0.15-2.26-1.2-7.65-3.89-4.06-2.03-7.49-3.72-7.63-3.77-0.14-0.04-0.37-0.08-0.52-0.09zm22.52 11.29c-0.3-0.01-0.5 0-0.62 0.04-0.09 0.03-0.27 0.12-0.38 0.19-0.12 0.08-0.29 0.22-0.38 0.33-0.1 0.11-0.22 0.3-0.29 0.43-0.06 0.12-0.16 0.37-0.21 0.54l-0.1 0.31v19.34l0.07 0.34c0.05 0.18 0.14 0.51 0.21 0.73s0.21 0.58 0.32 0.81 0.28 0.55 0.38 0.71 0.28 0.43 0.42 0.6c0.13 0.18 0.38 0.46 0.56 0.63 0.18 0.18 0.43 0.38 0.54 0.47 0.12 0.08 3.46 1.77 7.44 3.76s7.34 3.66 7.46 3.72c0.13 0.05 0.39 0.13 0.58 0.17 0.29 0.05 0.4 0.06 0.64 0.02 0.16-0.02 0.4-0.1 0.53-0.16 0.12-0.06 0.32-0.21 0.44-0.33s0.28-0.33 0.35-0.46c0.07-0.14 0.18-0.39 0.23-0.56l0.09-0.31 0.02-9.59 0.01-9.58-0.11-0.51c-0.05-0.28-0.16-0.68-0.23-0.88s-0.2-0.52-0.29-0.71c-0.08-0.18-0.26-0.5-0.39-0.71-0.12-0.2-0.35-0.53-0.5-0.71-0.15-0.19-0.38-0.44-0.52-0.56-0.13-0.12-0.34-0.3-0.47-0.39-0.12-0.1-3.44-1.78-7.52-3.81-4.02-2.01-7.42-3.7-7.57-3.75-0.22-0.09-0.37-0.11-0.71-0.12zm40.72 0c-0.23-0.01-0.49 0-0.57 0.03-0.08 0.02-0.24 0.07-0.35 0.11-0.11 0.05-3.48 1.72-7.48 3.72-4.04 2.02-7.39 3.71-7.53 3.82-0.15 0.1-0.37 0.28-0.5 0.4-0.13 0.11-0.36 0.37-0.51 0.55-0.15 0.19-0.37 0.51-0.5 0.71-0.13 0.21-0.31 0.53-0.39 0.72-0.09 0.18-0.22 0.5-0.29 0.7s-0.17 0.6-0.23 0.88l-0.11 0.51 0.02 9.59 0.01 9.58 0.07 0.25c0.05 0.14 0.14 0.38 0.22 0.55 0.09 0.18 0.23 0.38 0.37 0.52 0.12 0.13 0.33 0.28 0.46 0.35 0.12 0.06 0.36 0.13 0.52 0.15 0.24 0.04 0.35 0.04 0.64-0.02 0.19-0.04 0.45-0.11 0.58-0.17 0.12-0.05 3.48-1.72 7.45-3.71 3.98-1.99 7.33-3.68 7.45-3.77 0.11-0.08 0.36-0.29 0.54-0.47 0.18-0.17 0.43-0.45 0.57-0.62 0.13-0.18 0.32-0.45 0.42-0.61 0.09-0.16 0.26-0.48 0.37-0.71s0.25-0.59 0.32-0.81 0.16-0.55 0.21-0.73l0.07-0.33v-19.35l-0.09-0.31c-0.06-0.17-0.16-0.43-0.23-0.56-0.07-0.14-0.23-0.36-0.37-0.5s-0.34-0.29-0.48-0.35c-0.21-0.1-0.31-0.11-0.66-0.12zm45.08 5.78c-0.07 0-0.24 0.02-0.38 0.05s-0.34 0.1-0.46 0.14c-0.11 0.05-3.48 1.72-7.48 3.72-4.05 2.02-7.38 3.71-7.53 3.81-0.14 0.11-0.4 0.34-0.58 0.51-0.18 0.18-0.42 0.46-0.54 0.62s-0.32 0.46-0.44 0.66-0.29 0.52-0.38 0.73c-0.08 0.2-0.21 0.55-0.28 0.77-0.08 0.23-0.17 0.58-0.21 0.79l-0.07 0.39v18.93l0.07 0.33c0.05 0.19 0.15 0.49 0.24 0.67 0.11 0.22 0.24 0.41 0.38 0.56 0.13 0.13 0.33 0.27 0.48 0.34 0.14 0.07 0.37 0.14 0.5 0.17 0.15 0.02 0.34 0.02 0.53-0.01 0.16-0.02 0.41-0.09 0.57-0.15 0.15-0.06 3.53-1.74 7.52-3.73 4.33-2.16 7.36-3.69 7.52-3.81 0.16-0.11 0.44-0.35 0.62-0.54s0.46-0.52 0.62-0.73c0.15-0.22 0.4-0.64 0.55-0.94 0.14-0.3 0.32-0.71 0.39-0.91s0.17-0.56 0.22-0.79l0.1-0.43v-19.13l-0.08-0.33c-0.04-0.18-0.14-0.45-0.22-0.61s-0.24-0.4-0.36-0.52c-0.13-0.15-0.3-0.28-0.46-0.36-0.14-0.07-0.36-0.14-0.48-0.17-0.13-0.02-0.29-0.04-0.36-0.03zm-130.96 0.02c-0.15-0.02-0.36-0.01-0.46 0.01-0.1 0.03-0.3 0.1-0.45 0.17-0.16 0.08-0.33 0.21-0.46 0.36-0.12 0.12-0.28 0.36-0.36 0.52s-0.18 0.43-0.22 0.61l-0.07 0.33v19.14l0.09 0.43c0.05 0.23 0.15 0.59 0.22 0.79s0.25 0.61 0.4 0.91c0.14 0.29 0.39 0.72 0.55 0.93 0.15 0.22 0.43 0.55 0.61 0.73 0.19 0.19 0.46 0.43 0.61 0.53 0.16 0.12 3.31 1.72 7.52 3.82 3.99 2 7.38 3.68 7.54 3.74 0.15 0.06 0.41 0.13 0.56 0.15 0.19 0.03 0.38 0.03 0.54 0 0.13-0.02 0.35-0.09 0.49-0.16 0.16-0.07 0.35-0.21 0.48-0.34 0.14-0.15 0.28-0.34 0.38-0.56 0.09-0.18 0.2-0.49 0.24-0.67l0.07-0.34v-18.93l-0.07-0.38c-0.04-0.21-0.13-0.57-0.2-0.79-0.07-0.23-0.2-0.58-0.29-0.78s-0.26-0.53-0.38-0.73-0.32-0.5-0.44-0.66c-0.13-0.17-0.37-0.44-0.53-0.61-0.17-0.17-0.43-0.4-0.59-0.51-0.18-0.13-3.02-1.57-7.62-3.87-4.04-2.01-7.46-3.69-7.61-3.74-0.15-0.04-0.39-0.09-0.55-0.1zm22.47 11.28c-0.23 0-0.43 0.03-0.57 0.07-0.12 0.05-0.29 0.13-0.39 0.2-0.09 0.06-0.25 0.2-0.34 0.31-0.09 0.1-0.22 0.29-0.29 0.42-0.06 0.13-0.16 0.38-0.21 0.55l-0.09 0.3-0.02 9.45c-0.01 6.98 0 9.54 0.04 9.81 0.02 0.2 0.1 0.58 0.17 0.83 0.06 0.25 0.2 0.66 0.31 0.9 0.1 0.25 0.26 0.58 0.36 0.74 0.09 0.16 0.27 0.43 0.39 0.61 0.12 0.17 0.36 0.46 0.52 0.63 0.16 0.18 0.45 0.44 0.64 0.58 0.28 0.21 1.55 0.86 7.72 3.94 4.07 2.02 7.49 3.71 7.61 3.74 0.13 0.03 0.33 0.07 0.46 0.09 0.14 0.01 0.34 0 0.53-0.04 0.17-0.03 0.4-0.11 0.5-0.18 0.11-0.06 0.28-0.2 0.39-0.31 0.1-0.11 0.25-0.31 0.32-0.44s0.16-0.37 0.21-0.53 0.11-0.49 0.13-0.75c0.03-0.28 0.04-3.83 0.04-9.28 0-5.44-0.01-9.01-0.04-9.32-0.02-0.27-0.08-0.65-0.12-0.83-0.05-0.19-0.13-0.49-0.19-0.67-0.06-0.19-0.2-0.52-0.31-0.75s-0.28-0.55-0.38-0.71-0.29-0.44-0.44-0.63c-0.14-0.18-0.39-0.45-0.54-0.6-0.16-0.15-0.42-0.37-0.57-0.48-0.17-0.12-3.27-1.68-7.64-3.86-4.5-2.24-7.45-3.69-7.61-3.73-0.13-0.03-0.4-0.06-0.59-0.06zm85.98 0.01c-0.24-0.01-0.45-0.01-0.48 0-0.02 0.01-0.13 0.05-0.25 0.08-0.11 0.04-3.49 1.7-7.5 3.7s-7.42 3.72-7.59 3.83c-0.16 0.11-0.43 0.33-0.6 0.49s-0.43 0.44-0.57 0.62c-0.14 0.19-0.34 0.47-0.44 0.63s-0.27 0.48-0.38 0.71-0.25 0.56-0.31 0.75c-0.06 0.18-0.14 0.48-0.18 0.67-0.05 0.18-0.11 0.56-0.13 0.83-0.02 0.31-0.04 3.88-0.04 9.32 0 5.45 0.02 9 0.04 9.28 0.02 0.26 0.08 0.59 0.13 0.75s0.14 0.4 0.21 0.53 0.22 0.33 0.33 0.44c0.1 0.11 0.28 0.25 0.38 0.31 0.11 0.07 0.33 0.15 0.5 0.18 0.2 0.04 0.39 0.06 0.54 0.04 0.12-0.01 0.33-0.06 0.46-0.09 0.12-0.04 3.55-1.72 7.61-3.75 5.97-2.98 7.44-3.72 7.71-3.93 0.18-0.13 0.46-0.38 0.62-0.55 0.16-0.16 0.37-0.42 0.47-0.56 0.11-0.14 0.29-0.42 0.42-0.63 0.12-0.21 0.3-0.57 0.41-0.82 0.1-0.24 0.24-0.65 0.31-0.9 0.06-0.25 0.14-0.63 0.17-0.83 0.03-0.27 0.04-2.83 0.03-9.81l-0.01-9.45-0.1-0.31c-0.05-0.17-0.15-0.43-0.23-0.56-0.07-0.14-0.23-0.36-0.37-0.5s-0.33-0.28-0.48-0.35c-0.2-0.09-0.3-0.11-0.68-0.12zm-63.29 11.26c-0.31-0.02-0.44 0-0.6 0.05-0.12 0.05-0.3 0.13-0.41 0.19-0.1 0.06-0.27 0.21-0.37 0.31-0.1 0.11-0.24 0.33-0.31 0.49-0.08 0.17-0.18 0.41-0.22 0.55l-0.07 0.25-0.01 9.53-0.01 9.53 0.06 0.41c0.04 0.23 0.15 0.66 0.25 0.96s0.27 0.73 0.39 0.96c0.11 0.23 0.33 0.6 0.47 0.81 0.14 0.22 0.45 0.59 0.68 0.83 0.25 0.25 0.55 0.52 0.75 0.65 0.19 0.12 3.6 1.85 7.59 3.84 4 1.99 7.37 3.65 7.51 3.7 0.19 0.07 0.35 0.09 0.67 0.09 0.34 0 0.46-0.02 0.65-0.09 0.14-0.06 0.33-0.17 0.45-0.26 0.11-0.09 0.28-0.27 0.37-0.41s0.21-0.36 0.25-0.48c0.05-0.13 0.12-0.38 0.15-0.55 0.06-0.3 0.07-1.32 0.06-9.9l-0.02-9.57-0.09-0.36c-0.05-0.2-0.15-0.54-0.22-0.75s-0.22-0.57-0.33-0.81c-0.12-0.23-0.32-0.59-0.46-0.8s-0.38-0.53-0.54-0.71c-0.16-0.19-0.45-0.46-0.64-0.62l-0.34-0.28-7.4-3.7c-4.07-2.03-7.51-3.73-7.63-3.77-0.14-0.04-0.4-0.08-0.63-0.09zm40.7 0c-0.23-0.01-0.47 0.01-0.58 0.04s-0.32 0.11-0.48 0.18-3.54 1.75-7.51 3.74l-7.21 3.6-0.35 0.28c-0.19 0.16-0.48 0.44-0.64 0.62-0.16 0.19-0.41 0.51-0.54 0.72-0.14 0.2-0.34 0.56-0.46 0.79-0.11 0.24-0.26 0.6-0.33 0.81s-0.17 0.55-0.22 0.75l-0.09 0.36-0.01 9.57c-0.01 8.58-0.01 9.6 0.05 9.9 0.04 0.17 0.11 0.42 0.15 0.55 0.05 0.12 0.16 0.33 0.25 0.47s0.26 0.32 0.38 0.42c0.11 0.09 0.31 0.21 0.44 0.26 0.2 0.08 0.32 0.09 0.66 0.09 0.31 0 0.47-0.02 0.66-0.09 0.14-0.05 3.52-1.71 7.51-3.7s7.41-3.71 7.59-3.84c0.2-0.13 0.51-0.4 0.76-0.65 0.22-0.24 0.53-0.61 0.68-0.83 0.14-0.21 0.35-0.57 0.46-0.79s0.26-0.59 0.34-0.82c0.08-0.22 0.19-0.59 0.25-0.81l0.1-0.39v-19.35l-0.08-0.27c-0.04-0.15-0.14-0.4-0.21-0.56-0.08-0.16-0.23-0.39-0.34-0.51-0.13-0.15-0.29-0.27-0.51-0.38l-0.32-0.15-0.4-0.01zm-319.31 51.18l-13.23 107.04h21.82l3.05-25.59c2.18-18.04 11.63-27.35 18.32-27.35 4.66 0 5.53 4.51 4.22 14.4l-5.23 38.54h21.81l5.68-43.48c2.61-19.93-2.91-28.95-16.44-28.95-9.31 0-17.31 3.93-23.71 11.35l-0.29-0.15 5.67-45.81h-21.67zm160.51 0l-13.09 107.04h21.82l13.23-107.04h-21.96zm38.92 0l-13.09 107.04h21.82l13.23-107.04h-21.96zm-249.64 2.47c-33.16 0-54.83 28.07-54.83 62.4 0 28.79 18.18 43.48 42.18 43.48 15.71 0 29.52-6.54 39.12-17.74l-16.29-15.13c-5.52 6.55-13.52 10.47-21.23 10.47-11.93 0-19.2-7.85-19.2-21.96 0-19.34 11.05-39.26 28.94-39.26 7.86 0 14.11 5.09 18.62 13.23l18.47-13.96c-9.6-16.15-23.56-21.53-35.78-21.53zm587.55 1.31l-12.65 103.26h22.83l7.13-57.74 0.29-0.14 13.81 38.69h14.11l21.82-37.38 0.29 0.14-6.84 56.43h22.84l12.65-103.26h-22.83l-31.13 56.14h-0.43l-19.06-56.14h-22.83zm-437.15 30.83c-18.61 0-33.59 19.35-33.59 44.66 0 16.43 7.85 29.08 23.12 29.08 8 0 15.13-4.36 20.36-11.92l0.44 0.14-1.31 10.47h21.96l8.73-71.12h-21.96l-0.58 4.95h-0.44c-3.78-3.93-9.31-6.26-16.73-6.26zm163.75 0c-23.99 0-38.98 19.79-38.98 43.93-0.14 18.47 11.79 29.81 29.67 29.81 13.97 0 23.42-5.23 30.98-15.56l-16.29-9.6c-3.92 5.24-8.14 7.13-12.94 7.13-4.22 0-8.87-2.62-10.18-9.02 20.94-2.18 41.74-9.02 42.03-27.05 0.15-13.38-12.8-19.64-24.29-19.64zm83.13 0c-9.31 0-17.16 3.93-23.56 11.35l-0.29-0.15 1.16-9.89h-21.67l-8.87 71.12h21.82l3.2-26.32c2.32-17.74 11.63-26.62 18.18-26.62 4.65 0 5.52 4.51 4.21 14.4l-5.09 38.54h21.67l5.68-43.48c2.61-19.93-2.91-28.95-16.44-28.95zm60.2 0c-18.62 0-33.46 19.35-33.46 43.93 0 14.83 7.71 27.63 23.13 27.63 7.85 0 14.98-4.51 20.22-11.92l0.43 0.14c-2.62 20.65-9.89 24.29-20.8 24.29-6.25 0-12.21-1.89-18.18-5.53l-6.83 17.02c8.29 5.09 16.87 6.98 25.89 6.98 19.19 0 37.37-7.56 41.3-39.27l7.56-61.96h-21.81l-0.44 4.51-0.43 0.15c-3.79-3.93-9.31-5.97-16.58-5.97zm85.63 0c-24 0-38.98 19.79-38.98 43.93-0.15 18.47 11.78 29.81 29.67 29.81 13.96 0 23.42-5.23 30.98-15.56l-16.29-9.6c-3.93 5.24-8.14 7.13-12.94 7.13-4.22 0-8.88-2.62-10.19-9.02 20.95-2.18 41.74-9.02 42.04-27.05 0.14-13.38-12.8-19.64-24.29-19.64zm185.49 0c-24 0-38.98 19.79-38.98 43.93-0.14 18.47 11.78 29.81 29.67 29.81 13.96 0 23.42-5.23 30.98-15.56l-16.29-9.6c-3.93 5.24-8.14 7.13-12.94 7.13-4.22 0-8.87-2.62-10.18-9.02 20.94-2.18 41.74-9.02 42.03-27.05 0.14-13.38-12.8-19.64-24.29-19.64zm-416.34 18.18c3.35 0 5.38 1.61 5.24 4.51-0.15 6.99-9.75 9.75-20.36 10.91 2.47-9.89 8.87-15.42 15.12-15.42zm228.96 0c3.34 0 5.38 1.61 5.23 4.51-0.14 6.99-9.74 9.75-20.36 10.91 2.47-9.89 8.87-15.42 15.13-15.42zm185.49 0c3.34 0 5.38 1.61 5.24 4.51-0.15 6.99-9.75 9.75-20.37 10.91 2.48-9.89 8.88-15.42 15.13-15.42zm-572.53 1.31c4.51 0 8.59 1.75 11.79 5.09l-0.3 2.04c-2.47 17.89-11.19 27.78-18.76 27.78-4.94 0-8.14-4.51-8.14-11.34 0-10.62 5.82-23.57 15.41-23.57zm307.08 0c4.51 0 8.29 1.6 11.49 4.8l-0.29 2.33c-2.48 15.71-10.91 25.6-18.47 25.6-4.95 0-8-3.64-8-10.47 0-9.31 5.67-22.26 15.27-22.26zm-188.8 102.85c-0.98 0-1.9 0.22-2.75 0.67-0.86 0.43-1.55 1.08-2.08 1.95-0.51 0.86-0.77 1.9-0.77 3.14v1.82h-2.21v2.28h2.21v14.08h2.97v-14.08h4.68v-2.28h-4.68v-2.2c0-0.88 0.26-1.55 0.77-2.02 0.52-0.47 1.16-0.7 1.92-0.7 0.69 0 1.41 0.18 2.18 0.54l0.7-2.43c-1.02-0.51-2-0.77-2.94-0.77zm-228.7 0.19v23.75h2.97v-8.32c0-1.73 0.48-3.14 1.44-4.23s2.26-1.64 3.9-1.66c1.41 0 2.51 0.4 3.3 1.21 0.81 0.79 1.22 1.9 1.22 3.33v9.67h2.97v-10.47c0-2.05-0.56-3.65-1.69-4.8-1.13-1.17-2.69-1.76-4.67-1.76-3.18 0.05-5.34 1.29-6.47 3.75v-10.47h-2.97zm39.81 0v23.75h2.97v-23.75h-2.97zm9.12 0v23.75h2.98v-23.75h-2.98zm258.21 0v10.18c-0.62-1.13-1.48-2-2.56-2.59-1.09-0.6-2.36-0.9-3.81-0.9-1.58 0-2.99 0.36-4.23 1.09-1.21 0.72-2.16 1.74-2.84 3.04-0.69 1.28-1.03 2.75-1.03 4.41 0 1.69 0.34 3.19 1.03 4.52 0.68 1.3 1.63 2.32 2.84 3.07 1.24 0.72 2.66 1.09 4.26 1.09 1.43 0 2.68-0.3 3.74-0.9 1.09-0.62 1.96-1.49 2.6-2.62v3.36h2.97v-23.75h-2.97zm262.98 0v23.75h2.98v-23.75h-2.98zm-322.94 0.07c-0.53 0-0.98 0.18-1.34 0.54-0.34 0.36-0.51 0.82-0.51 1.38 0 0.55 0.17 1.01 0.51 1.37 0.36 0.36 0.81 0.55 1.34 0.55 0.54 0 0.97-0.19 1.31-0.55 0.37-0.36 0.55-0.82 0.55-1.37 0-0.56-0.18-1.02-0.55-1.38-0.34-0.36-0.77-0.54-1.31-0.54zm194.31 0c-0.53 0-0.98 0.18-1.34 0.54-0.34 0.36-0.51 0.82-0.51 1.38 0 0.55 0.17 1.01 0.51 1.37 0.36 0.36 0.81 0.55 1.34 0.55 0.54 0 0.98-0.19 1.32-0.55 0.36-0.36 0.54-0.82 0.54-1.37 0-0.56-0.18-1.02-0.54-1.38-0.34-0.36-0.78-0.54-1.32-0.54zm-454.01 1.08c-2.16 0-4.13 0.51-5.92 1.51s-3.21 2.38-4.26 4.13c-1.02 1.73-1.54 3.63-1.54 5.72 0 2.12 0.52 4.05 1.54 5.8 1.03 1.75 2.42 3.13 4.19 4.16 1.77 1 3.72 1.5 5.86 1.5 1.53 0 3.05-0.31 4.54-0.93 1.5-0.64 2.81-1.51 3.94-2.62l-1.86-2.02c-0.87 0.83-1.87 1.5-3 1.99-1.14 0.47-2.29 0.7-3.46 0.7-1.58 0-3.03-0.38-4.35-1.15-1.33-0.77-2.37-1.81-3.14-3.14-0.77-1.32-1.15-2.76-1.15-4.32 0-1.58 0.38-3.02 1.15-4.32 0.77-1.32 1.81-2.37 3.14-3.13 1.32-0.77 2.77-1.15 4.35-1.15 1.19 0 2.36 0.25 3.49 0.76 1.13 0.49 2.12 1.19 2.97 2.08l1.83-2.21c-1.07-1.06-2.34-1.88-3.81-2.46-1.45-0.6-2.96-0.9-4.51-0.9zm432.09 1.7v4.54h-2.4v2.28h2.4v9.37c0 1.62 0.41 2.84 1.25 3.65 0.83 0.79 1.92 1.19 3.26 1.19s2.67-0.42 3.97-1.25l-0.8-2.31c-0.94 0.54-1.81 0.8-2.62 0.8-0.69 0-1.2-0.2-1.54-0.61-0.34-0.4-0.51-1.07-0.51-2.01v-8.83h5.18v-2.28h-5.18v-4.54h-3.01zm-98.75 3.84c-1.73 0-3.17 0.4-4.32 1.19-1.15 0.78-1.73 1.97-1.73 3.55 0 1.02 0.25 1.85 0.74 2.49 0.51 0.64 1.12 1.13 1.82 1.47 0.73 0.32 1.66 0.64 2.79 0.96 1.28 0.39 2.23 0.77 2.85 1.16 0.64 0.38 0.96 0.96 0.96 1.72 0 0.75-0.3 1.31-0.9 1.67s-1.39 0.54-2.37 0.54-1.99-0.19-3.04-0.57c-1.02-0.39-1.89-0.9-2.59-1.54l-1.12 2.18c0.81 0.74 1.8 1.32 2.98 1.72 1.19 0.41 2.42 0.61 3.67 0.61 1.8 0 3.29-0.41 4.49-1.25 1.21-0.83 1.82-2.04 1.82-3.64 0-1.09-0.27-1.97-0.8-2.63-0.51-0.66-1.14-1.16-1.89-1.5-0.74-0.34-1.71-0.68-2.88-1.02-1.24-0.37-2.16-0.72-2.78-1.06-0.6-0.36-0.9-0.89-0.9-1.57s0.27-1.18 0.8-1.5c0.56-0.35 1.28-0.52 2.18-0.52 0.77 0 1.57 0.13 2.4 0.39 0.85 0.26 1.63 0.6 2.33 1.02l1.09-2.27c-0.72-0.49-1.59-0.87-2.59-1.15-0.98-0.3-1.99-0.45-3.01-0.45zm153.75 0c-1.73 0-3.17 0.4-4.32 1.19-1.15 0.78-1.73 1.97-1.73 3.55 0 1.02 0.25 1.85 0.74 2.49 0.51 0.64 1.12 1.13 1.82 1.47 0.73 0.32 1.66 0.64 2.79 0.96 1.28 0.39 2.23 0.77 2.85 1.16 0.64 0.38 0.96 0.96 0.96 1.72 0 0.75-0.3 1.31-0.9 1.67s-1.39 0.54-2.37 0.54-1.99-0.19-3.04-0.57c-1.02-0.39-1.89-0.9-2.59-1.54l-1.12 2.18c0.81 0.74 1.8 1.32 2.98 1.72 1.19 0.41 2.42 0.61 3.67 0.61 1.8 0 3.29-0.41 4.49-1.25 1.21-0.83 1.82-2.04 1.82-3.64 0-1.09-0.27-1.97-0.8-2.63-0.51-0.66-1.14-1.16-1.89-1.5-0.74-0.34-1.71-0.68-2.88-1.02-1.24-0.37-2.16-0.72-2.78-1.06-0.6-0.36-0.9-0.89-0.9-1.57s0.27-1.18 0.8-1.5c0.56-0.35 1.28-0.52 2.18-0.52 0.77 0 1.57 0.13 2.4 0.39 0.85 0.26 1.63 0.6 2.33 1.02l1.09-2.27c-0.72-0.49-1.59-0.87-2.59-1.15-0.98-0.3-1.99-0.45-3.01-0.45zm-446.89 0.03c-1.43 0-2.67 0.18-3.71 0.55-1.03 0.34-2.15 0.9-3.36 1.69l1.24 2.05c1.77-1.22 3.51-1.82 5.22-1.82 1.41 0 2.47 0.33 3.2 0.99 0.75 0.64 1.12 1.56 1.12 2.75v0.8h-5.38c-2 0.02-3.57 0.48-4.7 1.38-1.11 0.87-1.66 2.06-1.66 3.58 0 0.98 0.23 1.87 0.7 2.66 0.49 0.79 1.17 1.4 2.05 1.85 0.89 0.45 1.93 0.68 3.1 0.68 2.69 0 4.66-0.84 5.92-2.5v2.37h2.95l-0.04-11.14c-0.02-1.86-0.6-3.29-1.76-4.32-1.15-1.04-2.78-1.57-4.89-1.57zm37 0c-1.64 0-3.1 0.38-4.38 1.12-1.28 0.73-2.29 1.74-3.01 3.04-0.7 1.28-1.06 2.75-1.06 4.42 0 1.66 0.36 3.14 1.06 4.45 0.72 1.3 1.73 2.31 3.01 3.04 1.3 0.7 2.78 1.05 4.45 1.05 1.43 0 2.73-0.24 3.9-0.73 1.17-0.5 2.18-1.19 3.01-2.08l-1.63-1.7c-0.64 0.66-1.4 1.17-2.28 1.54-0.85 0.36-1.78 0.54-2.78 0.54-1.51 0-2.8-0.45-3.84-1.34-1.02-0.9-1.65-2.11-1.89-3.62h13.38c0.02-0.21 0.03-0.53 0.03-0.96 0-2.75-0.67-4.9-2.02-6.43-1.34-1.56-3.32-2.34-5.95-2.34zm21.44 0c-3.16 0.05-5.3 1.27-6.43 3.68v-3.58h-2.98v16.93h2.98v-9.06c0.12-1.52 0.66-2.74 1.6-3.68 0.96-0.96 2.19-1.45 3.71-1.47 1.41 0 2.51 0.4 3.3 1.21 0.81 0.79 1.21 1.9 1.21 3.33v9.67h2.98v-10.47c0-2.05-0.57-3.65-1.7-4.8-1.13-1.17-2.69-1.76-4.67-1.76zm17.67 0c-1.52 0-2.86 0.34-4.03 1.03-1.16 0.68-2.05 1.63-2.69 2.84-0.64 1.22-0.96 2.62-0.96 4.2 0 1.6 0.32 3.02 0.96 4.25 0.64 1.24 1.53 2.21 2.69 2.92 1.17 0.68 2.51 1.02 4.03 1.02 1.32 0 2.5-0.28 3.52-0.83 1.02-0.58 1.83-1.38 2.43-2.4v2.36c0 1.65-0.52 2.96-1.57 3.94-1.04 0.98-2.44 1.47-4.19 1.47-1.07 0-2.05-0.17-2.94-0.51-0.9-0.32-1.76-0.82-2.59-1.5l-1.32 2.17c2.16 1.58 4.48 2.37 6.98 2.37 1.73 0 3.24-0.33 4.54-0.99 1.3-0.64 2.31-1.57 3.01-2.79 0.73-1.21 1.09-2.63 1.09-4.25v-15.2h-3.01v3.1c-0.6-1.02-1.41-1.81-2.43-2.37-1-0.55-2.18-0.83-3.52-0.83zm21.2 0c-1.64 0-3.1 0.38-4.38 1.12-1.28 0.73-2.28 1.74-3.01 3.04-0.7 1.28-1.05 2.75-1.05 4.42 0 1.66 0.35 3.14 1.05 4.45 0.73 1.3 1.73 2.31 3.01 3.04 1.3 0.7 2.79 1.05 4.45 1.05 1.43 0 2.73-0.24 3.9-0.73 1.18-0.5 2.18-1.19 3.01-2.08l-1.63-1.7c-0.64 0.66-1.4 1.17-2.27 1.54-0.86 0.36-1.78 0.54-2.79 0.54-1.51 0-2.79-0.45-3.84-1.34-1.02-0.9-1.65-2.11-1.88-3.62h13.37c0.02-0.21 0.03-0.53 0.03-0.96 0-2.75-0.67-4.9-2.01-6.43-1.35-1.56-3.33-2.34-5.96-2.34zm43.32 0c-1.7 0-3.22 0.37-4.54 1.09-1.3 0.73-2.33 1.74-3.07 3.04-0.73 1.28-1.09 2.75-1.09 4.42 0 1.68 0.36 3.17 1.09 4.48 0.74 1.28 1.77 2.28 3.07 3 1.32 0.73 2.84 1.09 4.54 1.09 1.69 0 3.18-0.36 4.48-1.09 1.33-0.72 2.35-1.73 3.08-3.04 0.74-1.3 1.11-2.78 1.11-4.44 0-1.67-0.37-3.14-1.11-4.42-0.73-1.3-1.75-2.31-3.08-3.04-1.3-0.72-2.79-1.09-4.48-1.09zm42.58 0c-1.41 0.02-2.62 0.35-3.65 0.99-1.02 0.62-1.81 1.54-2.37 2.76v-3.65h-2.97v16.93h2.97v-8.93c0.15-1.62 0.76-2.91 1.83-3.87 1.06-0.96 2.46-1.41 4.19-1.35v-2.88zm31.56 0c-1.4 0.02-2.62 0.35-3.64 0.99-1.03 0.62-1.82 1.54-2.37 2.76v-3.65h-2.98v16.93h2.98v-8.93c0.15-1.62 0.75-2.91 1.82-3.87s2.47-1.41 4.19-1.35v-2.88zm18.79 0c-1.64 0-3.1 0.38-4.38 1.12-1.28 0.73-2.28 1.74-3.01 3.04-0.7 1.28-1.05 2.75-1.05 4.42 0 1.66 0.35 3.14 1.05 4.45 0.73 1.3 1.73 2.31 3.01 3.04 1.3 0.7 2.79 1.05 4.45 1.05 1.43 0 2.73-0.24 3.9-0.73 1.18-0.5 2.18-1.19 3.01-2.08l-1.63-1.7c-0.64 0.66-1.4 1.17-2.27 1.54-0.86 0.36-1.78 0.54-2.79 0.54-1.51 0-2.79-0.45-3.84-1.34-1.02-0.9-1.65-2.11-1.88-3.62h13.37c0.02-0.21 0.03-0.53 0.03-0.96 0-2.75-0.67-4.9-2.01-6.43-1.35-1.56-3.33-2.34-5.96-2.34zm21.44 0c-3.16 0.05-5.3 1.27-6.43 3.68v-3.58h-2.98v16.93h2.98v-9.06c0.13-1.52 0.66-2.74 1.6-3.68 0.96-0.96 2.2-1.45 3.71-1.47 1.41 0 2.51 0.4 3.3 1.21 0.81 0.79 1.21 1.9 1.21 3.33v9.67h2.98v-10.47c0-2.05-0.57-3.65-1.7-4.8-1.13-1.17-2.68-1.76-4.67-1.76zm63.57 0c-1.71 0-3.22 0.37-4.54 1.09-1.3 0.73-2.33 1.74-3.07 3.04-0.73 1.28-1.09 2.75-1.09 4.42 0 1.68 0.36 3.17 1.09 4.48 0.74 1.28 1.77 2.28 3.07 3 1.32 0.73 2.83 1.09 4.54 1.09 1.69 0 3.18-0.36 4.48-1.09 1.32-0.72 2.35-1.73 3.07-3.04 0.75-1.3 1.12-2.78 1.12-4.44 0-1.67-0.37-3.14-1.12-4.42-0.72-1.3-1.75-2.31-3.07-3.04-1.3-0.72-2.79-1.09-4.48-1.09zm21.83 0c-1.41 0.02-2.63 0.35-3.65 0.99-1.02 0.62-1.81 1.54-2.37 2.76v-3.65h-2.97v16.93h2.97v-8.93c0.15-1.62 0.76-2.91 1.83-3.87 1.06-0.96 2.46-1.41 4.19-1.35v-2.88zm17.65 0c-1.52 0-2.86 0.34-4.04 1.03-1.15 0.68-2.04 1.63-2.68 2.84-0.64 1.22-0.96 2.62-0.96 4.2 0 1.6 0.32 3.02 0.96 4.25 0.64 1.24 1.53 2.21 2.68 2.92 1.18 0.68 2.52 1.02 4.04 1.02 1.32 0 2.49-0.28 3.52-0.83 1.02-0.58 1.83-1.38 2.43-2.4v2.36c0 1.65-0.52 2.96-1.57 3.94s-2.44 1.47-4.19 1.47c-1.07 0-2.05-0.17-2.94-0.51-0.9-0.32-1.76-0.82-2.6-1.5l-1.31 2.17c2.16 1.58 4.48 2.37 6.98 2.37 1.73 0 3.24-0.33 4.54-0.99 1.3-0.64 2.3-1.57 3.01-2.79 0.72-1.21 1.09-2.63 1.09-4.25v-15.2h-3.01v3.1c-0.6-1.02-1.41-1.81-2.43-2.37-1.01-0.55-2.18-0.83-3.52-0.83zm21.2 0c-1.64 0-3.1 0.38-4.38 1.12-1.28 0.73-2.29 1.74-3.01 3.04-0.7 1.28-1.06 2.75-1.06 4.42 0 1.66 0.36 3.14 1.06 4.45 0.72 1.3 1.73 2.31 3.01 3.04 1.3 0.7 2.78 1.05 4.45 1.05 1.43 0 2.73-0.24 3.9-0.73 1.17-0.5 2.18-1.19 3.01-2.08l-1.63-1.7c-0.64 0.66-1.4 1.17-2.28 1.54-0.85 0.36-1.78 0.54-2.78 0.54-1.51 0-2.8-0.45-3.84-1.34-1.02-0.9-1.65-2.11-1.89-3.62h13.38c0.02-0.21 0.03-0.53 0.03-0.96 0-2.75-0.67-4.9-2.02-6.43-1.34-1.56-3.32-2.34-5.95-2.34zm51.25 0c-3.16 0.05-5.3 1.27-6.43 3.68v-3.58h-2.98v16.93h2.98v-9.06c0.13-1.52 0.66-2.74 1.6-3.68 0.96-0.96 2.2-1.45 3.71-1.47 1.41 0 2.51 0.4 3.3 1.21 0.81 0.79 1.21 1.9 1.21 3.33v9.67h2.98v-10.47c0-2.05-0.57-3.65-1.7-4.8-1.13-1.17-2.68-1.76-4.67-1.76zm33 0c-1.43 0-2.67 0.18-3.71 0.55-1.03 0.34-2.15 0.9-3.36 1.69l1.24 2.05c1.77-1.22 3.51-1.82 5.22-1.82 1.41 0 2.47 0.33 3.2 0.99 0.75 0.64 1.12 1.56 1.12 2.75v0.8h-5.38c-2 0.02-3.57 0.48-4.7 1.38-1.11 0.87-1.66 2.06-1.66 3.58 0 0.98 0.23 1.87 0.7 2.66 0.49 0.79 1.17 1.4 2.05 1.85 0.89 0.45 1.93 0.68 3.1 0.68 2.69 0 4.66-0.84 5.92-2.5v2.37h2.95l-0.04-11.14c-0.02-1.86-0.6-3.29-1.76-4.32-1.15-1.04-2.78-1.57-4.89-1.57zm21.38 0c-3.16 0.05-5.31 1.27-6.44 3.68v-3.58h-2.97v16.93h2.97v-9.06c0.13-1.52 0.67-2.74 1.61-3.68 0.96-0.96 2.19-1.45 3.71-1.47 1.4 0 2.5 0.4 3.29 1.21 0.81 0.79 1.22 1.9 1.22 3.33v9.67h2.97v-10.47c0-2.05-0.56-3.65-1.69-4.8-1.13-1.17-2.69-1.76-4.67-1.76zm18.43 0c-1.64 0-3.1 0.38-4.38 1.12-1.28 0.73-2.28 1.74-3.01 3.04-0.7 1.28-1.05 2.75-1.05 4.42 0 1.66 0.35 3.14 1.05 4.45 0.73 1.3 1.73 2.31 3.01 3.04 1.3 0.7 2.79 1.05 4.45 1.05 1.43 0 2.73-0.24 3.9-0.73 1.18-0.5 2.18-1.19 3.01-2.08l-1.63-1.7c-0.64 0.66-1.4 1.17-2.27 1.54-0.86 0.36-1.78 0.54-2.79 0.54-1.51 0-2.79-0.45-3.84-1.34-1.02-0.9-1.65-2.11-1.88-3.62h13.37c0.02-0.21 0.03-0.53 0.03-0.96 0-2.75-0.67-4.9-2.01-6.43-1.35-1.56-3.33-2.34-5.96-2.34zm27 0c-1.43 0-2.67 0.18-3.71 0.55-1.03 0.34-2.15 0.9-3.36 1.69l1.25 2.05c1.77-1.22 3.5-1.82 5.21-1.82 1.41 0 2.48 0.33 3.2 0.99 0.75 0.64 1.12 1.56 1.12 2.75v0.8h-5.37c-2.01 0.02-3.58 0.48-4.71 1.38-1.11 0.87-1.66 2.06-1.66 3.58 0 0.98 0.23 1.87 0.7 2.66 0.49 0.79 1.17 1.4 2.05 1.85 0.9 0.45 1.93 0.68 3.1 0.68 2.69 0 4.67-0.84 5.92-2.5v2.37h2.95l-0.03-11.14c-0.02-1.86-0.61-3.29-1.76-4.32-1.15-1.04-2.79-1.57-4.9-1.57zm28.14 0c-1.71 0-3.22 0.37-4.55 1.09-1.3 0.73-2.32 1.74-3.07 3.04-0.73 1.28-1.09 2.75-1.09 4.42 0 1.68 0.36 3.17 1.09 4.48 0.75 1.28 1.77 2.28 3.07 3 1.33 0.73 2.84 1.09 4.55 1.09 1.68 0 3.17-0.36 4.48-1.09 1.32-0.72 2.34-1.73 3.07-3.04 0.74-1.3 1.12-2.78 1.12-4.44 0-1.67-0.38-3.14-1.12-4.42-0.73-1.3-1.75-2.31-3.07-3.04-1.31-0.72-2.8-1.09-4.48-1.09zm22.24 0c-3.16 0.05-5.3 1.27-6.43 3.68v-3.58h-2.98v16.93h2.98v-9.06c0.12-1.52 0.66-2.74 1.6-3.68 0.96-0.96 2.19-1.45 3.71-1.47 1.41 0 2.51 0.4 3.3 1.21 0.81 0.79 1.21 1.9 1.21 3.33v9.67h2.98v-10.47c0-2.05-0.57-3.65-1.7-4.8-1.13-1.17-2.69-1.76-4.67-1.76zm18.44 0c-1.65 0-3.11 0.38-4.39 1.12-1.28 0.73-2.28 1.74-3.01 3.04-0.7 1.28-1.05 2.75-1.05 4.42 0 1.66 0.35 3.14 1.05 4.45 0.73 1.3 1.73 2.31 3.01 3.04 1.3 0.7 2.79 1.05 4.45 1.05 1.43 0 2.73-0.24 3.91-0.73 1.17-0.5 2.17-1.19 3-2.08l-1.63-1.7c-0.64 0.66-1.4 1.17-2.27 1.54-0.85 0.36-1.78 0.54-2.78 0.54-1.52 0-2.8-0.45-3.85-1.34-1.02-0.9-1.65-2.11-1.88-3.62h13.37c0.02-0.21 0.04-0.53 0.04-0.96 0-2.75-0.68-4.9-2.02-6.43-1.35-1.56-3.33-2.34-5.95-2.34zm-484.39 0.1l7.01 16.73-0.64 1.51c-0.64 1.45-1.6 2.17-2.88 2.17-0.77 0-1.52-0.26-2.27-0.8l-1.28 2.34c0.55 0.45 1.13 0.78 1.73 0.99 0.59 0.22 1.26 0.32 1.98 0.32 1.2 0 2.23-0.33 3.1-0.99 0.9-0.66 1.62-1.64 2.15-2.94l7.74-19.33h-3.04l-5.09 13.57-5.37-13.57h-3.14zm38.15 0v10.46c0 2.05 0.56 3.66 1.67 4.83 1.11 1.16 2.64 1.73 4.6 1.73 3.08-0.04 5.17-1.27 6.28-3.68v3.59h3v-16.93h-3v8.32c0 1.71-0.47 3.11-1.41 4.22-0.92 1.09-2.17 1.64-3.75 1.67-1.36 0-2.44-0.4-3.23-1.19-0.77-0.81-1.15-1.93-1.15-3.36v-9.66h-3.01zm65.14 0v16.93h2.98v-16.93h-2.98zm194.31 0v16.93h2.98v-16.93h-2.98zm-335.65 2.33c1.04 0 1.97 0.25 2.78 0.74s1.44 1.17 1.89 2.05c0.47 0.85 0.7 1.83 0.7 2.94 0 1.09-0.23 2.07-0.7 2.95-0.45 0.85-1.08 1.52-1.89 2.01s-1.74 0.74-2.78 0.74c-1.6 0-2.91-0.53-3.91-1.6s-1.51-2.43-1.54-4.1c0-1.11 0.24-2.09 0.71-2.94 0.47-0.88 1.11-1.56 1.92-2.05 0.83-0.49 1.77-0.74 2.82-0.74zm281.93 0c1.05 0 1.98 0.25 2.79 0.74s1.44 1.17 1.89 2.05c0.46 0.85 0.7 1.83 0.7 2.94 0 1.09-0.24 2.07-0.7 2.95-0.45 0.85-1.08 1.52-1.89 2.01s-1.74 0.74-2.79 0.74c-1.6 0-2.9-0.53-3.9-1.6s-1.52-2.43-1.54-4.1c0-1.11 0.24-2.09 0.71-2.94 0.47-0.88 1.11-1.56 1.92-2.05 0.83-0.49 1.77-0.74 2.81-0.74zm-321.59 0.04c1.54 0 2.78 0.44 3.72 1.34 0.93 0.87 1.45 2.08 1.53 3.62h-10.75c0.19-1.52 0.78-2.72 1.76-3.62 1-0.9 2.25-1.34 3.74-1.34zm60.32 0c1.53 0 2.77 0.44 3.71 1.34 0.94 0.87 1.45 2.08 1.53 3.62h-10.75c0.19-1.52 0.78-2.72 1.76-3.62 1.01-0.9 2.25-1.34 3.75-1.34zm136.25 0c1.53 0 2.77 0.44 3.71 1.34 0.94 0.87 1.45 2.08 1.53 3.62h-10.75c0.19-1.52 0.78-2.72 1.76-3.62 1.01-0.9 2.25-1.34 3.75-1.34zm145.68 0c1.54 0 2.78 0.44 3.72 1.34 0.93 0.87 1.45 2.08 1.53 3.62h-10.75c0.19-1.52 0.78-2.72 1.76-3.62 1-0.9 2.25-1.34 3.74-1.34zm124.07 0c1.53 0 2.77 0.44 3.71 1.34 0.94 0.87 1.45 2.08 1.53 3.62h-10.75c0.19-1.52 0.78-2.72 1.76-3.62 1.01-0.9 2.25-1.34 3.75-1.34zm95.81 0c1.53 0 2.77 0.44 3.71 1.34 0.94 0.87 1.45 2.08 1.54 3.62h-10.76c0.2-1.52 0.78-2.72 1.77-3.62 1-0.9 2.25-1.34 3.74-1.34zm-325.43 0.09c1.11 0 2.09 0.26 2.94 0.77 0.88 0.51 1.56 1.23 2.05 2.14 0.49 0.92 0.74 1.97 0.74 3.14 0 1.15-0.25 2.19-0.74 3.1-0.49 0.92-1.17 1.64-2.05 2.15-0.85 0.51-1.83 0.77-2.94 0.77s-2.1-0.26-2.98-0.77c-0.85-0.51-1.52-1.23-2.01-2.15-0.49-0.91-0.74-1.95-0.74-3.1s0.25-2.19 0.74-3.1c0.49-0.92 1.16-1.64 2.01-2.15 0.88-0.53 1.87-0.8 2.98-0.8zm-133.1 0.03c1.09 0 2.06 0.26 2.92 0.77 0.87 0.51 1.54 1.23 2.01 2.15 0.49 0.89 0.74 1.92 0.74 3.07 0 1.17-0.25 2.22-0.74 3.13-0.47 0.92-1.14 1.64-2.01 2.15-0.86 0.49-1.83 0.73-2.92 0.73-1.11 0-2.1-0.24-2.97-0.73-0.86-0.51-1.53-1.23-2.02-2.15-0.47-0.91-0.7-1.96-0.7-3.13 0-1.15 0.23-2.18 0.7-3.07 0.49-0.92 1.16-1.64 2.02-2.15 0.87-0.51 1.86-0.77 2.97-0.77zm177.94 0c1.09 0 2.06 0.26 2.91 0.77 0.88 0.51 1.55 1.23 2.02 2.15 0.49 0.89 0.73 1.92 0.73 3.07 0 1.17-0.24 2.22-0.73 3.13-0.47 0.92-1.14 1.64-2.02 2.15-0.85 0.49-1.82 0.73-2.91 0.73-1.11 0-2.1-0.24-2.98-0.73-0.85-0.51-1.52-1.23-2.01-2.15-0.47-0.91-0.7-1.96-0.7-3.13 0-1.15 0.23-2.18 0.7-3.07 0.49-0.92 1.16-1.64 2.01-2.15 0.88-0.51 1.87-0.77 2.98-0.77zm239.88 0c1.08 0 2.05 0.26 2.91 0.77 0.87 0.51 1.54 1.23 2.01 2.15 0.49 0.89 0.74 1.92 0.74 3.07 0 1.17-0.25 2.22-0.74 3.13-0.47 0.92-1.14 1.64-2.01 2.15-0.86 0.49-1.83 0.73-2.91 0.73-1.11 0-2.11-0.24-2.98-0.73-0.85-0.51-1.53-1.23-2.02-2.15-0.47-0.91-0.7-1.96-0.7-3.13 0-1.15 0.23-2.18 0.7-3.07 0.49-0.92 1.17-1.64 2.02-2.15 0.87-0.51 1.87-0.77 2.98-0.77zm-559.7 6.72h4.96v1.7c-0.19 1.11-0.78 2.01-1.76 2.69-0.96 0.66-2.13 0.99-3.52 0.99-1.11 0-2-0.26-2.66-0.77s-0.99-1.2-0.99-2.08c0-0.87 0.32-1.51 0.96-1.92 0.66-0.4 1.67-0.61 3.01-0.61zm463.5 0h4.96v1.7c-0.19 1.11-0.78 2.01-1.76 2.69-0.96 0.66-2.13 0.99-3.52 0.99-1.11 0-2-0.26-2.66-0.77s-0.99-1.2-0.99-2.08c0-0.87 0.32-1.51 0.96-1.92 0.66-0.4 1.67-0.61 3.01-0.61zm66.81 0h4.96v1.7c-0.19 1.11-0.78 2.01-1.76 2.69-0.96 0.66-2.13 0.99-3.52 0.99-1.11 0-1.99-0.26-2.65-0.77-0.67-0.51-1-1.2-1-2.08 0-0.87 0.32-1.51 0.96-1.92 0.67-0.4 1.67-0.61 3.01-0.61z" /></svg>